#tb 0: 1/25
0,          0,          0,        1,   149240, 7a580af923f79d740391481f44080fb8
0,          1,          1,        1,   148992, 5083a5e7c7ba433a157441aeb93cec33
0,          2,          2,        1,   150648, 05657dc59cf5f9c0b1eb4ec875000cb8
0,          3,          3,        1,   149716, 8a7742db11d0d35f5b575423099b5bd7
0,          4,          4,        1,   149272, f437090e4782d65f65b06eb1d47c9aa0
0,          5,          5,        1,   150044, d8d00cf8ae06b6ca8d30a89e7c9666f8
0,          6,          6,        1,   149532, 4abc60d6ea18bffe28151e0f4549aa95
0,          7,          7,        1,   149316, a12ddb15795b63b7bf1ce8a66fa1815e
0,          8,          8,        1,   149516, 3752007da5c2c1963314d35e2d580783
0,          9,          9,        1,   149520, 419534098fa161671528cc77e307cf79
0,         10,         10,        1,   149444, 383a3b79634d6aeecfc7eb0a5a5c9b7b
0,         11,         11,        1,   149164, 5a5901882e8b9aa5a6300b7d786c2b16
0,         12,         12,        1,   147996, fe9fb5d4cd97c7ad7f11c87b9f75b0a9
0,         13,         13,        1,   149152, 83e0c36884b91263d2d235fab9a3b3e7
0,         14,         14,        1,   149640, 366bdff8c41cb2f5a90810f719661bcc
0,         15,         15,        1,   149600, e72f5f3e18b7a98443094d6e34d5286c
0,         16,         16,        1,   148916, a94a62b5647365d13081a6c3398b127d
0,         17,         17,        1,   149520, fdbc007fb7443b5bfd388d273413d20b
0,         18,         18,        1,   148468, bc4c7b5324fe5658c15e8540dbc7130a
0,         19,         19,        1,   148388, e9caa4e18c0bffb07039427d0a98798d
0,         20,         20,        1,   147772, 3eb6bde758e13296e61911d6f574a49f
0,         21,         21,        1,   148128, 64cc6d5c819d10e725c30fe69ef040ae
0,         22,         22,        1,   148200, d5b8a93061a70e55b8b751d3c1a4ac5c
0,         23,         23,        1,   149312, ef912e5a3640992dd2948037535b0341
0,         24,         24,        1,   149244, 8df2d35148b9d934f79566cf6371af89
0,         25,         25,        1,   149040, 27f1c2a77ae36fa23bd36ecf4df67fb8
0,         26,         26,        1,   149020, 995370b34bd96cd5004ba5c4d449fd3f
0,         27,         27,        1,   148308, b0a7cd8ee1db8fd0d1324450386de11c
0,         28,         28,        1,   148016, 6d211a6b4e790e9c46757053782e6713
0,         29,         29,        1,   147324, 730619aa336408d3d5694eb8e3ea2d71
0,         30,         30,        1,   148104, 34c53deccc3be58bdc4cd9c0e3f19918
0,         31,         31,        1,   149004, 710a4724ffac1457b8437f94c8e97b8b
0,         32,         32,        1,   148452, be7c947371e8a434233eb7eaeef95c8d
0,         33,         33,        1,   149076, 694fc1872869e16aaf176473f2094c52
0,         34,         34,        1,   148952, f35b66ac7f42cbaf849a41536306cb85
0,         35,         35,        1,   149012, 3f5d904d5a8b3d169f8c87f21b712ef6
0,         36,         36,        1,   148464, 363df43764cb27a2d2a16e9246bf2c76
0,         37,         37,        1,   148968, 2e08d0c96fdc99b091ad20c1aed208b6
0,         38,         38,        1,   147744, 15412763aec2d25f9a23de4fa3cf60dc
0,         39,         39,        1,   148124, f76679ddeaf18af0ef9563c7b7d86636
0,         40,         40,        1,   147800, 3195234ce043d883252fbe7a01dbe86c
0,         41,         41,        1,   148528, dd4b892d143ebd326452f5504d23d794
0,         42,         42,        1,   147752, eb8c442bcc34a8a38e5101c1e00615c9
0,         43,         43,        1,   147832, d834c5e4e0a1ab0a31c13eb7ac40fbc1
0,         44,         44,        1,   148000, 9761129bd0122132d2154a56c2ceec62
0,         45,         45,        1,   147344, 9b76ab62f501f0714076d9f94bb4374a
0,         46,         46,        1,   146744, 184298b63c13730635f347eecdb506dd
0,         47,         47,        1,   145980, ef4f03747a2a76016fc66df7a32a57b8
0,         48,         48,        1,   146228, e2618fe6c95722d63cbce7ae5021ed16
0,         49,         49,        1,   145756, 9f9187896e840d163ad955c1a37756fe
